<svg width="25" height="25" viewBox="0 0 25 25" fill="none" xmlns="http://www.w3.org/2000/svg">
<path d="M20.6807 19.9443L13.2364 12.5L20.6807 5.05567C20.8757 4.85387 20.8757 4.53388 20.6807 4.33202C20.4809 4.12514 20.1512 4.11941 19.9443 4.31924L12.5 11.7636L5.0557 4.3193C4.8539 4.12437 4.53391 4.12437 4.33205 4.3193C4.12517 4.51913 4.11945 4.84885 4.31927 5.05573L11.7635 12.5L4.31927 19.9442C4.22162 20.0419 4.16675 20.1743 4.16675 20.3124C4.16668 20.6001 4.39989 20.8333 4.68752 20.8333C4.82567 20.8334 4.95817 20.7785 5.0557 20.6807L12.5 13.2364L19.9443 20.6807C20.0418 20.7786 20.1744 20.8335 20.3125 20.8333C20.4505 20.8333 20.5829 20.7785 20.6806 20.6809C20.884 20.4775 20.8841 20.1477 20.6807 19.9443Z" fill="currentColor"/>
</svg>
