<svg width="18" height="21" viewBox="0 0 18 21" fill="none" xmlns="http://www.w3.org/2000/svg">
<path d="M9.05114 3.65839C9.41333 3.65839 10.2739 3.8845 10.2739 3.8845C12.6051 4.41187 14.246 6.53166 14.246 8.925V15.367L14.7227 15.8397L15.1209 16.2346H2.87908L3.27733 15.8397L3.75397 15.367V8.925C3.75397 6.53171 5.39489 4.41187 7.72614 3.8845C7.72614 3.8845 8.6488 3.65839 8.94886 3.65839M9 0C8.0999 0 7.41176 0.682399 7.41176 1.575V2.30995C4.39394 2.9926 2.11761 5.7225 2.11761 8.925V14.7L0 16.8V17.85H18V16.8L15.8824 14.7V8.925C15.8824 5.7225 13.606 2.9926 10.5882 2.30995V1.575C10.5882 0.682399 9.9001 0 9 0ZM11.1176 18.9H6.88234C6.88234 20.055 7.83516 21 9 21C10.1648 21 11.1176 20.055 11.1176 18.9Z" fill="#626D81"/>
</svg>
