<svg width="44" height="45" viewBox="0 0 44 45" fill="none" xmlns="http://www.w3.org/2000/svg">
<rect y="0.5" width="44" height="44" rx="22" fill="#7B869B"/>
<path d="M26.392 16.4186H27.7458C28.6413 16.4186 29.455 16.7913 30.0445 17.3914C30.6339 17.9915 31 18.8202 31 19.7317V27.1868C31 28.0985 30.634 28.927 30.0446 29.5271C29.4552 30.1273 28.6413 30.5 27.7458 30.5H16.2542C15.3587 30.5 14.545 30.1273 13.9556 29.5271C13.3661 28.927 13 28.0985 13 27.1868V19.7317C13 18.82 13.3661 17.9914 13.9556 17.3913C14.545 16.7911 15.3587 16.4186 16.2542 16.4186H17.6081C17.7361 15.9965 17.986 15.6252 18.2935 15.325C18.8163 14.8143 19.534 14.5 20.0896 14.5H23.9103C24.466 14.5 25.1837 14.8143 25.7064 15.325C26.0138 15.6252 26.2638 15.9965 26.3919 16.4186H26.392ZM22 19.4212C23.0949 19.4212 24.0867 19.8733 24.8044 20.604C25.5221 21.3348 25.9662 22.3445 25.9662 23.4594C25.9662 24.5742 25.5221 25.5839 24.8044 26.3146C24.0866 27.0453 23.0951 27.4974 22 27.4974C20.9049 27.4974 19.9134 27.0453 19.1956 26.3146C18.478 25.5838 18.0339 24.5742 18.0339 23.4594C18.0339 22.3444 18.478 21.3349 19.1956 20.604C19.9133 19.8733 20.9051 19.4212 22 19.4212ZM23.9417 21.4824C23.4449 20.9767 22.7584 20.6639 22 20.6639C21.2417 20.6639 20.5551 20.9767 20.0583 21.4824C19.5617 21.9882 19.2543 22.6873 19.2543 23.4594C19.2543 24.2314 19.5617 24.9305 20.0583 25.4362C20.5551 25.9419 21.2417 26.2549 22 26.2549C22.7582 26.2549 23.4449 25.9419 23.9417 25.4362C24.4384 24.9305 24.7457 24.2314 24.7457 23.4594C24.7457 22.6872 24.4384 21.9882 23.9417 21.4824ZM27.7458 17.6611H25.8745C25.5376 17.6611 25.2644 17.3829 25.2644 17.0399C25.2644 16.7332 25.0953 16.445 24.8627 16.218C24.5616 15.9237 24.1823 15.7426 23.9104 15.7426H20.0897C19.8178 15.7426 19.4385 15.9237 19.1374 16.218C18.9048 16.4451 18.7357 16.7332 18.7357 17.0399C18.7357 17.3829 18.4625 17.6611 18.1256 17.6611H16.2542C15.6955 17.6611 15.1871 17.8943 14.8183 18.2697C14.4496 18.6452 14.2205 19.1629 14.2205 19.7318V27.1869C14.2205 27.7556 14.4496 28.2734 14.8183 28.6488C15.1872 29.0242 15.6956 29.2575 16.2542 29.2575H27.7459C28.3047 29.2575 28.8133 29.0242 29.1819 28.6488C29.5507 28.2733 29.7797 27.7558 29.7797 27.1869V19.7318C29.7797 19.163 29.5506 18.6452 29.1818 18.2699C28.813 17.8944 28.3046 17.6611 27.7459 17.6611H27.7458Z" fill="#D9D9D9"/>
</svg>
